<?xml version="1.0" standalone="no"?>
<!DOCTYPE svg PUBLIC "-//W3C//DTD SVG 20010904//EN"
 "http://www.w3.org/TR/2001/REC-SVG-20010904/DTD/svg10.dtd">
<svg version="1.0" xmlns="http://www.w3.org/2000/svg"
 width="1024.000000pt" height="1024.000000pt" viewBox="0 0 1024.000000 1024.000000"
 preserveAspectRatio="xMidYMid meet">

<g transform="translate(0.000000,1024.000000) scale(0.100000,-0.100000)"
fill="#000000" stroke="none">
<path d="M2747 5922 c-9 -10 -34 -56 -55 -102 -73 -158 -94 -205 -112 -245
-21 -47 -77 -169 -126 -272 -62 -132 -84 -185 -84 -205 0 -10 -4 -17 -9 -14
-4 3 -13 -5 -19 -18 -8 -17 -7 -23 3 -23 8 0 11 7 7 15 -3 9 -1 13 5 9 12 -8
23 13 24 46 0 21 1 21 8 2 5 -11 4 -28 -1 -37 -7 -14 -5 -18 11 -18 11 0 21
-6 24 -12 2 -7 8 -9 13 -5 8 7 -6 21 -31 30 -20 8 2 16 53 20 29 2 55 1 57 -3
6 -10 -24 -22 -35 -15 -5 3 -12 0 -16 -6 -5 -9 2 -10 25 -6 35 7 64 30 53 42
-4 5 1 5 11 2 9 -4 17 -2 17 3 0 5 6 7 13 5 6 -3 24 6 40 20 15 14 27 23 27
20 0 -19 47 49 75 108 174 373 159 333 160 432 0 78 -4 98 -28 150 -45 95 -75
116 -110 77z m-296 -715 c-10 -9 -11 -8 -5 6 3 10 9 15 12 12 3 -3 0 -11 -7
-18z"/>
<path d="M6503 5463 c15 -2 37 -2 50 0 12 2 0 4 -28 4 -27 0 -38 -2 -22 -4z"/>
<path d="M7300 5460 c-8 -5 -11 -13 -6 -17 5 -4 11 -2 13 5 3 6 11 12 19 12 9
0 13 -4 10 -9 -4 -5 3 -7 14 -4 26 7 86 -34 99 -67 6 -14 12 -38 14 -55 l4
-30 2 33 c2 56 -31 101 -94 128 -40 16 -54 17 -75 4z"/>
<path d="M6350 5453 c-40 -7 -170 -64 -170 -74 0 -5 -6 -9 -14 -9 -8 0 -29
-14 -47 -31 -17 -16 -40 -34 -51 -40 -29 -16 -100 -118 -129 -189 -59 -140
-72 -298 -35 -420 22 -72 47 -130 57 -130 5 0 8 -6 6 -12 -1 -7 4 -12 10 -11
7 2 12 -3 10 -10 -1 -6 4 -11 11 -9 8 1 11 -1 8 -6 -8 -13 24 -53 36 -46 6 4
8 3 5 -3 -13 -21 110 -101 208 -134 61 -21 295 -19 366 4 90 28 203 102 244
158 21 27 33 54 29 60 -4 7 -3 9 3 6 15 -9 25 51 13 74 -16 29 -44 23 -97 -23
-125 -108 -321 -135 -460 -64 -87 44 -139 113 -162 215 -8 36 -7 40 5 30 25
-21 229 -24 339 -5 55 10 102 20 105 24 3 4 16 8 29 10 41 4 108 39 108 55 0
12 -5 14 -18 6 -23 -12 -26 -3 -18 46 3 22 7 34 8 28 1 -14 43 -18 55 -6 10
10 75 10 69 -1 -3 -5 -1 -6 5 -2 7 4 12 14 12 22 0 8 4 14 9 14 11 0 41 85 41
115 0 12 -7 30 -16 41 -13 16 -15 16 -10 2 3 -10 1 -18 -4 -18 -5 0 -10 8 -13
18 -2 9 -3 -10 -1 -43 3 -50 2 -54 -5 -22 -11 53 -25 61 -16 10 l7 -43 -51 0
c-41 0 -55 5 -76 26 -15 14 -24 32 -21 40 3 8 1 14 -3 14 -5 0 -7 9 -4 20 3
11 0 20 -6 20 -6 0 -11 9 -11 20 0 22 15 27 23 8 4 -10 8 -9 16 2 8 11 7 19
-7 30 -10 8 -22 24 -27 35 -7 18 -9 18 -12 3 -3 -10 -10 -18 -16 -18 -7 0 -6
-5 3 -11 12 -9 11 -9 -5 -3 -11 4 -30 8 -42 8 -16 1 -19 4 -11 14 8 10 6 11
-8 5 -16 -6 -17 -4 -7 8 10 13 10 16 -1 16 -18 0 -13 -24 13 -68 62 -101 -12
-238 -149 -276 -39 -11 -56 -19 -48 -25 10 -6 10 -8 -2 -8 -13 0 -13 -2 0 -9
9 -7 3 -8 -20 -6 -19 2 -69 7 -110 10 -106 9 -145 16 -133 23 5 4 13 34 16 67
4 38 3 53 -3 40 -8 -19 -9 -18 -11 5 -6 64 -4 87 8 110 7 14 13 19 13 12 0 -7
6 -10 13 -7 6 4 4 0 -7 -9 -15 -12 -17 -22 -11 -53 l8 -38 11 40 c14 49 49
117 70 134 9 7 13 18 9 24 -3 5 -1 7 4 4 6 -4 16 0 22 7 15 18 -5 34 -22 17
-15 -15 -30 -14 -21 2 5 9 4 9 -6 0 -11 -10 -11 -15 1 -29 9 -12 10 -15 2 -10
-9 5 -13 0 -13 -14 0 -12 -4 -19 -9 -15 -5 3 -12 1 -16 -4 -3 -6 -12 -8 -20
-4 -11 4 -13 1 -8 -13 6 -17 5 -17 -10 -5 -15 12 -17 11 -17 -13 0 -23 -4 -26
-35 -26 -26 0 -33 3 -29 15 4 10 0 15 -11 15 -12 0 -15 -5 -11 -17 5 -16 5
-16 -8 0 -12 16 -17 16 -35 5 -12 -7 -21 -18 -21 -25 0 -7 -7 -13 -16 -13 -11
0 -14 6 -9 20 5 15 3 18 -9 14 -18 -7 -20 4 -6 26 6 10 10 11 10 3 0 -7 5 -13
11 -13 5 0 7 5 4 10 -3 6 1 13 10 16 13 5 13 9 3 22 -10 12 -10 14 0 8 6 -4
13 -2 13 3 1 6 2 16 3 21 0 6 5 10 10 9 5 0 13 5 17 13 6 9 9 9 9 1 0 -6 -5
-15 -11 -19 -8 -4 -7 -9 2 -15 12 -7 12 -10 0 -21 -9 -8 -11 -9 -7 -1 3 6 1
15 -5 18 -7 5 -10 1 -7 -10 1 -10 10 -19 19 -20 12 -2 15 7 15 43 -1 53 13 63
45 31 17 -17 23 -19 30 -8 11 18 11 30 0 48 -6 9 -11 10 -15 2 -4 -6 -1 -11 6
-11 10 0 10 -2 -1 -9 -28 -18 -40 -1 -17 23 11 12 23 21 25 19 2 -1 19 11 38
28 30 25 37 28 51 17 12 -10 14 -10 8 0 -5 8 2 14 23 18 17 4 28 10 26 14 -7
11 93 32 107 24 7 -4 8 -2 4 4 -7 12 -12 13 -56 5z m325 -263 c3 -5 2 -10 -4
-10 -5 0 -13 5 -16 10 -3 6 -2 10 4 10 5 0 13 -4 16 -10z m5 -77 c-11 -17 -11
-17 -6 0 3 10 6 24 7 30 0 9 2 9 5 0 3 -7 0 -20 -6 -30z m-703 -5 c1 -30 1
-31 -6 -8 -7 21 -5 40 2 40 2 0 3 -15 4 -32z m742 -28 c0 -10 -3 -9 -10 5 -7
16 -8 13 -4 -12 2 -18 0 -33 -5 -33 -13 0 -17 42 -6 62 11 19 26 6 25 -22z
m198 -22 c-2 -13 -4 -5 -4 17 -1 22 1 32 4 23 2 -10 2 -28 0 -40z m-955 7 c4
-20 2 -23 -8 -14 -7 6 -10 17 -7 25 7 20 10 18 15 -11z m716 -21 c-2 -39 -2
-39 -22 -19 -12 13 -13 21 -4 40 15 33 29 21 26 -21z m-691 4 c-3 -8 -6 -5 -6
6 -1 11 2 17 5 13 3 -3 4 -12 1 -19z m110 0 c-3 -8 -6 -5 -6 6 -1 11 2 17 5
13 3 -3 4 -12 1 -19z m543 -22 c0 -2 -8 -10 -17 -17 -16 -13 -17 -12 -4 4 13
16 21 21 21 13z m264 -12 c3 -8 2 -12 -4 -9 -6 3 -10 10 -10 16 0 14 7 11 14
-7z m-992 -46 c-8 -8 -9 -4 -5 13 4 13 8 18 11 10 2 -7 -1 -18 -6 -23z m225 0
c-3 -7 -5 -2 -5 12 0 14 2 19 5 13 2 -7 2 -19 0 -25z m30 0 c-3 -7 -5 -2 -5
12 0 14 2 19 5 13 2 -7 2 -19 0 -25z m457 3 c-8 -8 -43 -8 -38 0 2 4 13 7 24
6 10 -1 17 -3 14 -6z m106 -21 c0 -5 -11 -10 -25 -10 -14 0 -25 5 -25 10 0 6
11 10 25 10 14 0 25 -4 25 -10z m-828 -42 c-8 -8 -9 -4 -5 13 4 13 8 18 11 10
2 -7 -1 -18 -6 -23z m637 2 c-9 -6 -9 -9 2 -13 8 -2 5 -2 -6 0 -11 3 -28 5
-37 6 -9 1 -14 5 -11 10 2 4 14 5 25 1 14 -4 18 -2 14 5 -5 7 -1 8 9 4 12 -4
13 -8 4 -13z m-628 -80 l-9 -45 -1 42 c-1 44 11 91 16 63 2 -8 -1 -35 -6 -60z
m559 66 c0 -3 -4 -8 -10 -11 -5 -3 -10 -1 -10 4 0 6 5 11 10 11 6 0 10 -2 10
-4z m224 -32 c3 -8 2 -12 -4 -9 -6 3 -10 10 -10 16 0 14 7 11 14 -7z m-34 -4
c0 -5 -5 -10 -11 -10 -5 0 -7 5 -4 10 3 6 8 10 11 10 2 0 4 -4 4 -10z m-660
-234 c0 -2 -8 -10 -17 -17 -16 -13 -17 -12 -4 4 13 16 21 21 21 13z m867 -39
c0 -8 -6 -14 -14 -14 -9 0 -10 4 -2 14 6 7 12 13 14 13 1 0 2 -6 2 -13z m-597
-11 c0 -2 -7 -7 -16 -10 -8 -3 -12 -2 -9 4 6 10 25 14 25 6z m85 -46 c3 -5 2
-10 -4 -10 -5 0 -13 5 -16 10 -3 6 -2 10 4 10 5 0 13 -4 16 -10z"/>
<path d="M6605 5450 c11 -5 32 -9 47 -9 17 -1 29 -8 33 -21 8 -25 27 -27 23
-2 -3 20 -50 40 -93 41 -26 0 -27 -2 -10 -9z"/>
<path d="M7761 5449 c-51 -15 -111 -56 -164 -112 -45 -47 -102 -138 -78 -122
6 3 11 1 11 -5 0 -6 5 -8 10 -5 6 3 10 1 10 -5 0 -8 -9 -10 -24 -6 -15 4 -26
1 -28 -6 -3 -9 -12 -8 -34 5 l-29 18 23 -20 c22 -19 31 -38 12 -26 -5 3 -10 2
-10 -4 0 -20 19 -21 30 0 7 11 14 18 17 16 2 -3 -3 -17 -12 -31 -16 -24 -16
-26 -1 -20 9 3 16 11 16 16 0 6 6 8 14 5 14 -6 36 10 36 27 0 6 -5 5 -12 -2
-15 -15 -28 -15 -28 -1 0 5 4 8 9 4 5 -3 12 -1 16 5 4 6 11 7 17 4 7 -4 8 -2
4 5 -11 18 32 65 67 74 41 10 130 15 116 6 -6 -3 1 -9 16 -13 15 -4 30 -5 33
-1 3 3 -2 5 -11 5 -9 0 -17 4 -17 8 0 5 14 9 30 9 20 0 26 -3 18 -9 -9 -5 -7
-8 7 -9 16 0 14 -3 -10 -14 -18 -8 -34 -10 -41 -4 -6 5 -13 7 -16 4 -3 -3 -22
2 -43 11 -27 11 -41 12 -48 5 -6 -6 -20 -11 -30 -11 -16 0 -17 -2 -7 -16 11
-12 11 -15 -1 -12 -8 2 -13 -2 -12 -8 1 -7 -6 -10 -16 -7 -10 3 -22 -1 -26 -8
-5 -7 -4 -10 3 -5 6 3 14 1 18 -5 4 -7 3 -9 -3 -6 -11 7 -53 -44 -54 -65 0 -7
-5 -4 -10 7 -9 19 -9 19 -5 -2 5 -28 -29 -83 -51 -83 -14 0 -18 -8 -17 -40 0
-21 -3 -37 -8 -34 -4 3 -5 16 -2 30 5 20 0 31 -29 57 -41 37 -57 43 -57 22 0
-11 -11 -15 -40 -15 -22 0 -40 -5 -40 -11 0 -6 -7 -4 -15 5 -8 8 -15 26 -15
40 0 16 6 26 15 26 21 0 19 7 -8 34 -30 30 -54 29 -66 -3 -15 -41 -24 -723
-10 -754 7 -15 15 -24 19 -22 4 3 7 -2 6 -11 -1 -19 58 -54 92 -54 67 0 132
60 151 140 13 56 33 453 24 476 -4 11 -2 15 4 11 6 -4 13 9 17 33 16 100 69
183 150 234 51 32 129 28 198 -12 72 -40 115 -42 159 -5 31 27 59 77 59 108 0
9 -4 13 -10 10 -6 -4 -8 5 -4 22 11 56 -94 143 -158 130 -17 -3 -14 -5 10 -6
18 0 31 -5 28 -9 -2 -4 4 -9 15 -9 33 -3 81 -43 76 -64 -3 -11 -1 -17 4 -13 5
3 9 -12 10 -33 0 -21 2 -48 3 -60 2 -19 0 -20 -16 -12 -18 10 -18 9 -7 -13 6
-13 8 -20 4 -16 -12 12 -87 -31 -78 -45 4 -8 1 -7 -10 1 -9 8 -26 11 -39 7
-23 -6 -23 -6 2 15 14 12 20 19 13 16 -15 -8 -45 22 -37 36 4 7 2 8 -4 4 -7
-4 -12 -1 -12 8 0 8 4 17 9 21 15 8 9 85 -6 85 -7 0 -13 9 -13 20 0 11 -5 20
-11 20 -5 0 -8 -4 -4 -10 8 -13 -50 -41 -70 -34 -12 5 -13 9 -3 21 10 12 9 18
-6 29 -16 11 -12 13 35 11 30 0 54 3 56 10 2 6 -7 9 -24 7 -24 -4 -25 -3 -8 5
26 13 1 12 -44 0z m-21 -39 c8 -5 11 -12 7 -16 -4 -4 -15 0 -24 9 -18 18 -8
23 17 7z m-29 -21 c16 -8 18 -13 8 -25 -13 -16 -29 -19 -29 -4 0 6 8 10 18 11
13 0 12 3 -6 11 -17 9 -26 8 -35 -1 -9 -10 -9 -11 4 -6 13 5 16 0 13 -22 -1
-15 -8 -29 -14 -31 -8 -3 -8 -8 1 -18 9 -11 8 -14 -4 -14 -8 0 -17 -6 -20 -12
-3 -10 -7 -10 -20 1 -12 9 -17 10 -17 2 0 -7 -5 -9 -10 -6 -12 7 6 46 27 58 7
5 11 12 8 18 -4 5 -1 9 6 9 7 0 9 3 6 7 -7 6 22 32 36 33 5 0 17 -5 28 -11z
m-121 -128 c0 -4 -9 -18 -19 -30 l-19 -22 2 24 c1 17 6 23 15 19 10 -4 13 -1
8 12 -4 10 -3 15 3 11 6 -3 10 -10 10 -14z m250 -25 c0 -2 -7 -7 -16 -10 -8
-3 -12 -2 -9 4 6 10 25 14 25 6z m-612 -144 c3 -20 -17 -52 -32 -52 -3 0 -6
18 -6 41 0 33 3 40 18 37 9 -2 18 -13 20 -26z m-31 -124 c-3 -8 -6 -5 -6 6 -1
11 2 17 5 13 3 -3 4 -12 1 -19z"/>
<path d="M7657 5353 c-4 -3 -7 -11 -7 -17 0 -6 5 -5 12 2 6 6 9 14 7 17 -3 3
-9 2 -12 -2z"/>
<path d="M7625 5310 c-3 -5 1 -10 9 -10 9 0 16 5 16 10 0 6 -4 10 -9 10 -6 0
-13 -4 -16 -10z"/>
<path d="M7260 5439 c0 -5 -4 -8 -9 -4 -5 3 -19 -9 -31 -26 -17 -23 -20 -33
-11 -42 9 -9 10 -7 5 8 -7 18 -6 19 10 5 23 -18 51 -23 37 -6 -12 15 -7 52 7
49 6 -2 9 4 6 12 -7 17 -14 20 -14 4z m-14 -48 c0 -15 -3 -17 -13 -9 -7 6 -10
14 -7 19 9 15 20 10 20 -10z"/>
<path d="M6734 5415 c11 -8 25 -15 30 -15 6 0 4 -5 -4 -10 -13 -9 -13 -10 0
-10 13 0 13 -1 0 -10 -11 -7 -6 -8 19 -5 29 3 32 1 28 -16 -4 -16 -3 -18 8 -9
9 8 17 6 30 -6 12 -12 13 -19 5 -24 -9 -5 -9 -9 -1 -14 6 -4 11 -2 11 4 0 6 5
8 10 5 6 -4 8 -10 5 -14 -2 -5 4 -16 15 -26 11 -10 16 -24 13 -33 -5 -11 -3
-13 7 -7 9 6 12 4 8 -6 -3 -8 0 -28 7 -44 7 -17 14 -23 14 -15 2 29 -21 95
-35 107 -9 6 -14 15 -13 19 9 24 -97 118 -156 137 -20 7 -20 7 -1 -8z m61 -35
c3 -6 -1 -7 -9 -4 -18 7 -21 14 -7 14 6 0 13 -4 16 -10z"/>
<path d="M6640 5404 c0 -8 5 -12 10 -9 6 3 10 10 10 16 0 5 -4 9 -10 9 -5 0
-10 -7 -10 -16z"/>
<path d="M7921 5405 c-1 -21 45 -50 54 -35 3 4 -6 11 -19 14 -14 3 -27 14 -29
24 -4 14 -5 14 -6 -3z"/>
<path d="M7945 5410 c3 -5 8 -10 11 -10 2 0 4 5 4 10 0 6 -5 10 -11 10 -5 0
-7 -4 -4 -10z"/>
<path d="M6377 5404 c-3 -3 -20 -7 -39 -9 -18 -2 -44 -8 -58 -14 l-25 -12 24
5 c15 3 29 -1 36 -11 9 -12 16 -13 33 -4 16 9 24 8 36 -5 9 -8 24 -13 33 -10
10 3 32 2 48 -2 l30 -9 -27 -5 c-15 -3 -25 -1 -22 4 3 5 -13 5 -37 2 -31 -5
-40 -4 -35 4 4 7 1 12 -6 12 -9 0 -14 -12 -14 -34 0 -21 4 -32 10 -28 22 13
103 20 143 11 44 -9 99 3 89 20 -3 5 -23 9 -43 9 l-37 0 24 -15 c14 -8 17 -12
7 -9 -10 3 -23 6 -29 6 -6 0 -8 6 -5 14 3 8 1 17 -6 20 -7 3 -3 4 9 1 26 -7
56 4 48 16 -8 13 -48 11 -62 -3 -9 -9 -20 -9 -47 1 -19 7 -39 9 -45 6 -6 -4
-10 5 -10 19 0 25 -10 33 -23 20z"/>
<path d="M6722 5388 c-15 -15 -15 -28 0 -28 6 0 8 3 5 7 -4 3 -2 12 4 20 14
16 7 17 -9 1z"/>
<path d="M6670 5380 c0 -5 5 -10 10 -10 6 0 10 5 10 10 0 6 -4 10 -10 10 -5 0
-10 -4 -10 -10z"/>
<path d="M7990 5369 c0 -5 5 -7 10 -4 6 3 10 8 10 11 0 2 -4 4 -10 4 -5 0 -10
-5 -10 -11z"/>
<path d="M7192 5335 c0 -16 2 -22 5 -12 2 9 2 23 0 30 -3 6 -5 -1 -5 -18z"/>
<path d="M6194 5322 c-11 -16 -8 -18 27 -21 40 -2 48 6 27 27 -17 17 -41 15
-54 -6z"/>
<path d="M6320 5333 c0 -6 6 -14 13 -16 10 -4 10 -6 0 -6 -16 -1 -17 -27 -1
-37 7 -5 8 -3 3 6 -4 7 -2 16 6 21 12 7 11 11 -3 26 -10 9 -18 12 -18 6z"/>
<path d="M7928 5329 c18 -19 15 -27 -10 -31 -22 -3 -22 -4 2 -9 21 -4 26 -2
28 17 1 13 -5 25 -16 29 -14 5 -15 4 -4 -6z"/>
<path d="M8012 5290 c0 -14 2 -19 5 -12 2 6 2 18 0 25 -3 6 -5 1 -5 -13z"/>
<path d="M7195 5290 c-3 -5 -2 -10 4 -10 5 0 13 5 16 10 3 6 2 10 -4 10 -5 0
-13 -4 -16 -10z"/>
<path d="M7450 5279 c0 -8 6 -21 13 -28 10 -11 9 -13 -6 -8 -15 6 -16 4 -7
-13 14 -27 29 -25 28 3 -2 26 -28 70 -28 46z"/>
<path d="M7970 5265 c0 -8 4 -15 8 -15 5 0 9 7 9 15 0 8 -4 15 -9 15 -4 0 -8
-7 -8 -15z"/>
<path d="M4608 5115 c14 -41 14 -88 -4 -540 -6 -166 1 -197 58 -239 39 -28
114 -28 154 1 64 46 76 91 91 358 7 132 11 248 9 258 -2 9 -1 15 4 12 4 -3 11
12 15 32 4 21 13 50 21 65 12 23 12 27 0 22 -7 -3 -18 -15 -24 -27 -6 -12 -11
-16 -11 -9 -1 7 4 23 10 34 8 15 8 19 -1 13 -6 -4 -15 -17 -20 -29 -8 -19 -9
-18 -10 9 -1 28 -2 28 -10 8 -6 -14 -5 -34 2 -54 8 -24 8 -40 -1 -64 -6 -18
-9 -41 -6 -51 4 -11 0 -8 -8 6 -16 26 -12 84 4 74 5 -3 9 1 9 9 0 14 -70 84
-70 70 0 -5 -5 -1 -10 7 -7 11 -10 11 -10 2 0 -10 -5 -10 -20 -2 -17 9 -22 7
-32 -15 -6 -14 -15 -25 -20 -25 -4 0 -8 -18 -8 -40 0 -22 -4 -40 -10 -40 -5 0
-10 18 -10 40 0 33 -3 40 -19 40 -16 0 -21 -8 -24 -42 -3 -37 -4 -35 -6 17 -2
40 -5 54 -10 40 -6 -16 -9 -13 -14 17 -3 20 -4 47 -3 60 2 16 -2 24 -14 24
-15 0 -15 -4 -2 -41z m29 -132 c-3 -10 -5 -4 -5 12 0 17 2 24 5 18 2 -7 2 -21
0 -30z m0 -85 c-2 -13 -4 -3 -4 22 0 25 2 35 4 23 2 -13 2 -33 0 -45z m193 47
c-7 -8 -16 -15 -21 -15 -5 0 -9 7 -9 15 0 9 9 15 21 15 18 0 19 -2 9 -15z"/>
<path d="M5622 5140 c0 -14 2 -19 5 -12 2 6 2 18 0 25 -3 6 -5 1 -5 -13z"/>
<path d="M7360 5146 c0 -2 7 -9 15 -16 12 -10 15 -10 15 4 0 9 -7 16 -15 16
-8 0 -15 -2 -15 -4z"/>
<path d="M4808 5133 c7 -3 16 -2 19 1 4 3 -2 6 -13 5 -11 0 -14 -3 -6 -6z"/>
<path d="M5326 5131 c-4 -6 -3 -11 2 -11 6 0 10 -12 9 -27 -3 -79 4 -134 15
-127 6 4 9 3 7 -2 -23 -46 -29 -82 -37 -239 -9 -176 -4 -273 16 -311 17 -31
70 -77 81 -70 5 4 14 -2 20 -11 8 -15 23 -18 84 -18 64 0 80 4 123 30 52 32
90 90 80 122 -7 22 -103 57 -109 40 -2 -6 -6 -4 -10 5 -4 13 -1 16 14 13 18
-4 19 -2 7 12 -15 19 -17 102 -5 378 7 176 7 187 -7 150 -16 -41 -21 -77 -6
-40 5 13 8 -5 8 -51 0 -77 -11 -113 -22 -70 -5 20 -13 26 -34 26 -22 0 -24 2
-12 11 11 8 12 12 3 16 -8 2 -13 22 -13 44 0 32 -3 39 -20 39 -17 0 -20 -7
-20 -40 l0 -40 -40 0 c-33 0 -43 -5 -50 -22 -8 -17 -9 -10 -4 27 3 28 10 52
15 53 5 2 9 13 8 25 0 21 -1 21 -9 2 -7 -16 -9 -16 -9 -4 -1 16 -31 36 -31 21
0 -5 -6 -16 -13 -26 -12 -17 -14 -13 -15 29 -2 53 -15 85 -26 66z m57 -146 c4
-8 3 -16 -1 -19 -4 -3 -9 4 -9 15 -2 23 3 25 10 4z m-23 -111 c0 -8 -5 -12
-10 -9 -6 4 -8 11 -5 16 9 14 15 11 15 -7z"/>
<path d="M7453 5114 c-17 -17 -16 -24 1 -24 19 0 27 13 18 27 -5 7 -11 7 -19
-3z"/>
<path d="M4245 5099 c-4 -6 -5 -12 -2 -15 2 -3 7 2 10 11 7 17 1 20 -8 4z"/>
<path d="M4165 5081 c-33 -8 -93 -39 -140 -70 -34 -24 -23 -28 15 -6 32 18 41
19 34 2 -3 -8 -20 -20 -39 -27 -19 -7 -31 -18 -28 -23 3 -5 -3 -6 -16 -2 -20
6 -31 -9 -12 -17 4 -1 11 -14 15 -28 6 -24 6 -23 -9 3 -19 32 -39 31 -41 -2
-1 -23 -22 -44 -34 -36 -11 7 -19 -431 -9 -468 11 -40 52 -82 70 -72 7 5 10 4
5 -3 -13 -21 59 -25 101 -6 45 21 58 35 84 91 16 34 21 78 29 245 5 111 13
230 17 263 4 33 7 67 8 75 0 8 4 21 8 28 5 6 5 12 0 12 -4 0 -1 4 7 10 27 17
-1 25 -31 8 -16 -9 -29 -13 -29 -8 0 5 -8 7 -17 5 -10 -3 -3 2 15 10 17 8 32
17 32 20 0 3 -1 5 -2 4 -2 -1 -16 -4 -33 -8z m40 -66 c-2 -27 -15 -48 -15 -22
0 9 -4 18 -9 21 -5 3 -7 -20 -5 -52 1 -32 -2 -64 -7 -72 -9 -12 -10 -11 -5 4
4 10 1 24 -5 32 -7 9 -7 19 1 34 6 11 8 29 5 40 -4 12 0 22 12 29 26 15 29 14
28 -14z m-25 -154 c0 -6 -4 -13 -10 -16 -5 -3 -10 1 -10 9 0 9 5 16 10 16 6 0
10 -4 10 -9z m-263 -48 c-3 -10 -5 -2 -5 17 0 19 2 27 5 18 2 -10 2 -26 0 -35z
m254 -215 c-9 -32 -9 -31 -10 17 0 38 2 46 10 33 6 -11 6 -29 0 -50z m-74
-223 c0 -8 -4 -12 -9 -9 -5 3 -6 10 -3 15 9 13 12 11 12 -6z"/>
<path d="M6171 5064 c0 -11 3 -14 6 -6 3 7 2 16 -1 19 -3 4 -6 -2 -5 -13z"/>
<path d="M5442 5040 c0 -19 2 -27 5 -17 2 9 2 25 0 35 -3 9 -5 1 -5 -18z"/>
<path d="M6816 4939 c2 -4 -1 -11 -7 -14 -5 -4 -8 -13 -5 -20 3 -8 0 -16 -7
-18 -7 -2 -9 -7 -6 -11 9 -9 71 44 66 57 -2 6 -13 11 -25 12 -11 1 -19 -2 -16
-6z m34 -13 c0 -2 -6 -9 -14 -15 -11 -9 -16 -9 -22 0 -4 7 -3 9 4 5 6 -3 13
-2 17 4 6 10 15 14 15 6z"/>
<path d="M6358 4903 c12 -2 30 -2 40 0 9 3 -1 5 -23 4 -22 0 -30 -2 -17 -4z"/>
<path d="M2145 4639 c-4 -6 -5 -12 -2 -15 2 -3 7 2 10 11 7 17 1 20 -8 4z"/>
<path d="M3250 4619 c0 -4 7 -22 15 -40 8 -19 14 -27 14 -19 0 14 -28 72 -29
59z"/>
<path d="M2102 4537 c-12 -30 -15 -44 -7 -33 8 11 15 24 15 29 0 4 4 6 9 3 5
-4 7 4 3 16 -5 21 -4 22 14 8 18 -14 18 -14 4 5 -8 11 -15 21 -15 22 -1 2 -11
-21 -23 -50z"/>
<path d="M3600 4581 c0 -6 5 -13 10 -16 6 -4 8 -11 5 -16 -4 -5 -2 -9 4 -9 6
0 8 -8 4 -17 -4 -13 -3 -15 5 -8 9 8 9 19 0 43 -12 30 -28 43 -28 23z"/>
<path d="M2389 4551 c-12 -26 -15 -28 -21 -13 -5 9 -5 1 -2 -18 4 -28 3 -32
-6 -20 -10 13 -11 12 -6 -3 3 -10 6 -22 7 -25 0 -4 11 17 25 47 13 30 22 56
20 58 -2 2 -10 -10 -17 -26z"/>
<path d="M3288 4535 c-8 -14 17 -67 27 -58 4 5 5 0 2 -10 -4 -11 -3 -16 3 -12
13 8 13 35 1 35 -5 0 -13 12 -18 27 -5 15 -12 23 -15 18z"/>
<path d="M3637 4503 c-4 -3 -7 -11 -7 -17 0 -6 5 -5 12 2 6 6 9 14 7 17 -3 3
-9 2 -12 -2z"/>
<path d="M3325 4441 c-3 -5 -1 -12 5 -16 5 -3 10 1 10 9 0 18 -6 21 -15 7z"/>
<path d="M3660 4448 c0 -3 7 -21 15 -41 8 -19 11 -37 8 -41 -4 -3 -1 -6 7 -6
10 0 10 -3 1 -14 -10 -12 -9 -13 7 -9 19 4 18 7 -5 56 -25 52 -33 65 -33 55z"/>
<path d="M2296 4385 c-11 -8 -16 -15 -10 -15 5 0 18 7 28 15 11 8 16 15 10 15
-5 0 -18 -7 -28 -15z"/>
<path d="M3402 4384 c-22 -15 -22 -34 1 -34 8 0 8 3 -2 9 -10 6 -10 10 -1 16
6 4 17 2 23 -4 6 -6 16 -11 22 -11 5 0 2 5 -8 11 -9 6 -15 14 -12 20 9 13 3
11 -23 -7z"/>
<path d="M2127 4379 c-9 -5 -21 -8 -25 -5 -5 3 -9 -1 -9 -9 0 -13 18 -25 33
-24 4 0 10 -5 14 -11 4 -7 7 4 6 24 0 20 -1 36 -1 36 0 0 -8 -5 -18 -11z m7
-30 c-3 -5 -10 -7 -15 -3 -5 3 -7 10 -3 15 3 5 10 7 15 3 5 -3 7 -10 3 -15z"/>
<path d="M2250 4367 c0 -2 6 -10 14 -16 11 -9 16 -9 22 1 4 7 4 10 -1 6 -4 -4
-14 -3 -22 3 -7 6 -13 9 -13 6z"/>
<path d="M3488 4353 c17 -7 15 -23 -3 -23 -8 0 -15 5 -15 10 0 6 -12 9 -27 9
-21 -1 -23 -2 -8 -6 11 -3 25 -10 32 -15 7 -5 21 -7 33 -3 17 5 19 10 9 21 -6
8 -17 14 -23 13 -7 0 -6 -2 2 -6z"/>
<path d="M3553 4313 c15 -2 37 -2 50 0 12 2 0 4 -28 4 -27 0 -38 -2 -22 -4z"/>
</g>
</svg>
