<svg width="726" height="169" viewBox="0 0 726 169" fill="none" xmlns="http://www.w3.org/2000/svg">
<g filter="url(#filter0_d_9_13)">
<path d="M109.5 126C112.667 126 115 127.25 116.5 129.75C118.167 132.083 119 134.667 119 137.5C119 141 118.417 143.5 117.25 145C116.25 146.333 114.25 147.75 111.25 149.25C104.25 152.583 95.5833 155.25 85.25 157.25C74.9167 159.25 63.8333 160.25 52 160.25C37.1667 160.25 26.25 157.75 19.25 152.75C12.4167 147.75 8.16667 141.75 6.5 134.75C5 127.583 4.25 118.25 4.25 106.75C4.25 94.4167 4.75 82.3333 5.75 70.5C6.75 58.5 8.5 43.25 11 24.75C12.1667 16.75 15.3333 11 20.5 7.5C25.6667 3.83333 31.3333 1.99999 37.5 1.99999C42.6667 1.99999 51.0833 1.83333 62.75 1.5L84.5 1.24999C93.5 1.24999 100 1.49999 104 1.99999C109 2.99999 112.667 4.16666 115 5.49999C117.5 6.66666 118.75 8.75 118.75 11.75C118.75 15.0833 117.583 18.3333 115.25 21.5C113.083 24.6667 109.75 26.25 105.25 26.25C100.083 26.25 92.6667 25.9167 83 25.25C73.3333 24.5833 66.0833 24.25 61.25 24.25C57.0833 24.25 53 24.5 49 25C44.3333 25.3333 41 25.9167 39 26.75C37 27.5833 35.8333 29 35.5 31C33.1667 48.1667 32 60.8333 32 69C35.8333 69.5 39.5833 69.75 43.25 69.75C47.9167 69.75 52.9167 69.5 58.25 69C63.5833 68.5 67 68.1667 68.5 68C77.3333 67.1667 84.9167 66.75 91.25 66.75C94.9167 66.75 97.6667 67.4167 99.5 68.75C101.5 70.0833 102.5 71.9167 102.5 74.25C102.5 77.9167 101.5 80.75 99.5 82.75C97.6667 84.75 94.3333 86.25 89.5 87.25C83.6667 88.4167 76.4167 89.3333 67.75 90C59.25 90.6667 50.9167 91 42.75 91C39.9167 91 36 90.8333 31 90.5C30.5 100.667 30.25 110.083 30.25 118.75C30.25 130.583 38.0833 136.5 53.75 136.5C62.0833 136.5 69 135.917 74.5 134.75C80 133.583 86.3333 131.917 93.5 129.75C100.167 127.25 105.5 126 109.5 126ZM206.689 93.75C214.356 93.75 218.189 98.0833 218.189 106.75C218.189 111.25 216.606 114.5 213.439 116.5C210.439 118.5 206.689 119.5 202.189 119.5C200.856 119.5 199.439 119.417 197.939 119.25C196.439 119.083 194.856 118.917 193.189 118.75C188.189 117.917 183.689 117.5 179.689 117.5C176.856 117.5 172.606 117.833 166.939 118.5C160.939 119.167 156.356 119.5 153.189 119.5C148.689 119.5 144.689 118.667 141.189 117C137.689 115.167 135.939 112.167 135.939 108C135.939 102.167 138.106 98.4167 142.439 96.75C146.773 94.9167 152.856 94 160.689 94L168.939 94.25C172.939 94.5833 176.023 94.75 178.189 94.75L196.439 94.25L206.689 93.75Z" fill="black" fill-opacity="0.92" shape-rendering="crispEdges"/>
<path d="M367.281 21.25C369.781 24.25 371.531 26.6667 372.531 28.5C373.531 30.3333 374.031 32.0833 374.031 33.75C374.031 35.75 372.698 38.0833 370.031 40.75C367.531 43.4167 365.031 44.75 362.531 44.75C359.198 44.75 356.531 44.25 354.531 43.25C352.531 42.25 350.865 40.6667 349.531 38.5C346.865 34.5 343.615 31.0833 339.781 28.25C335.948 25.25 329.948 23.75 321.781 23.75C314.781 23.75 306.781 25.3333 297.781 28.5C288.948 31.6667 282.615 35.5833 278.781 40.25C275.448 44.4167 272.531 50.75 270.031 59.25C267.698 67.75 266.531 76 266.531 84C266.531 93.6667 268.615 102.583 272.781 110.75C277.115 118.75 283.281 125.167 291.281 130C299.448 134.833 309.198 137.25 320.531 137.25C326.698 137.25 333.031 136.083 339.531 133.75C346.198 131.25 351.948 127.25 356.781 121.75H356.531C359.531 118.583 363.281 117 367.781 117C370.448 117 372.948 118.167 375.281 120.5C377.781 122.833 379.031 125.167 379.031 127.5C379.031 130 378.615 132.25 377.781 134.25C377.115 136.083 375.781 138.167 373.781 140.5C366.948 148.167 358.865 153.417 349.531 156.25C340.198 159.083 329.031 160.5 316.031 160.5C304.531 160.5 292.865 157.75 281.031 152.25C269.365 146.75 260.365 140.083 254.031 132.25C250.698 127.417 247.448 120.5 244.281 111.5C241.281 102.333 239.781 94.9167 239.781 89.25C239.781 74.75 241.948 61 246.281 48C250.781 34.8333 257.448 24.3333 266.281 16.5C272.115 11.1667 280.531 7.16666 291.531 4.49999C302.531 1.83333 312.615 0.499997 321.781 0.499997C332.948 0.499997 341.698 2.08333 348.031 5.25C354.531 8.25 360.948 13.5833 367.281 21.25ZM500.176 79.75C501.509 82.0833 502.592 85.5 503.426 90C504.259 94.3333 504.676 98.25 504.676 101.75C504.676 108.25 503.259 117.5 500.426 129.5C488.926 150.5 471.926 161 449.426 161C441.092 161 432.592 158.25 423.926 152.75C415.259 147.25 409.259 140.917 405.926 133.75C401.426 119.417 399.176 110.333 399.176 106.5C399.176 99.8333 400.592 92.75 403.426 85.25C406.426 77.75 410.176 71.25 414.676 65.75C417.509 61.9167 422.592 58.6667 429.926 56C437.259 53.1667 443.926 51.75 449.926 51.75C461.592 51.75 471.509 54 479.676 58.5C487.842 62.8333 494.676 69.9167 500.176 79.75ZM478.426 120C479.259 117.833 479.676 112.25 479.676 103.25C479.676 98.4167 478.759 93.6667 476.926 89C475.259 84.3333 472.759 80.3333 469.426 77C469.092 76.6667 468.176 76.1667 466.676 75.5C465.176 74.6667 463.092 73.9167 460.426 73.25C457.926 72.4167 455.009 72 451.676 72C442.342 72 435.509 75.75 431.176 83.25C426.842 90.75 424.676 99.25 424.676 108.75C424.676 110.417 425.092 113.583 425.926 118.25C426.926 122.917 427.759 125.833 428.426 127C428.926 128.167 430.176 129.833 432.176 132C434.342 134 436.926 135.833 439.926 137.5C443.092 139 446.342 139.75 449.676 139.75C457.176 139.75 463.176 138 467.676 134.5C472.176 130.833 475.759 126 478.426 120ZM686.855 151.25C684.355 146.583 682.772 141.417 682.105 135.75C681.439 129.917 681.105 121.917 681.105 111.75C681.105 102.083 679.772 93.6667 677.105 86.5C674.439 79.3333 668.939 75.75 660.605 75.75C657.439 75.75 654.272 76.75 651.105 78.75C648.105 80.5833 645.855 82.9167 644.355 85.75C642.022 90.25 640.439 95.1667 639.605 100.5C638.772 105.667 638.355 111.667 638.355 118.5C638.355 122.833 638.605 127.25 639.105 131.75C639.105 133.083 639.189 135.25 639.355 138.25C639.689 141.083 639.855 143.667 639.855 146C639.855 156 636.355 161 629.355 161C620.189 161 615.355 156.167 614.855 146.5C614.855 139.667 614.939 136 615.105 135.5V124.75C615.105 118.75 614.855 112.917 614.355 107.25C613.855 101.583 613.272 97.3333 612.605 94.5C611.105 89 609.105 84.75 606.605 81.75C604.272 78.75 600.522 77.25 595.355 77.25C588.022 77.25 582.105 80.4167 577.605 86.75C574.439 91.75 572.355 97.8333 571.355 105C570.355 114.167 569.605 121.417 569.105 126.75C568.772 131.917 568.605 137.917 568.605 144.75C568.605 149.583 567.772 153.5 566.105 156.5C564.605 159.5 561.689 161 557.355 161C554.189 161 550.855 160.167 547.355 158.5C544.022 156.667 542.355 154.25 542.355 151.25C542.355 148.083 542.689 144.917 543.355 141.75C544.855 132.25 545.605 115.25 545.605 90.75C545.605 86.75 544.605 82.9167 542.605 79.25C540.772 75.4167 538.522 73.5 535.855 73.5C535.189 73.5 533.939 73.8333 532.105 74.5C530.439 75.1667 529.189 75.5 528.355 75.5C526.189 75.5 524.189 74.5 522.355 72.5C520.689 70.5 519.855 68.8333 519.855 67.5C519.855 63.3333 521.855 59.8333 525.855 57C530.022 54 534.355 52.5 538.855 52.5C545.022 52.5 550.272 54.4167 554.605 58.25C558.939 62.0833 562.272 67.4167 564.605 74.25C568.439 67.5833 573.605 62.25 580.105 58.25C586.605 54.0833 593.855 52 601.855 52C606.855 52 610.855 52.6667 613.855 54C617.022 55.1667 619.605 56.9167 621.605 59.25C623.605 61.4167 626.189 64.75 629.355 69.25C633.522 63.9167 638.855 59.75 645.355 56.75C652.022 53.75 658.855 52.25 665.855 52.25C674.189 52.25 681.689 55.6667 688.355 62.5C695.022 69.1667 699.522 76.9167 701.855 85.75C703.022 90.25 703.605 98.9167 703.605 111.75L704.605 126.25C705.439 134.917 708.272 140.167 713.105 142C718.772 143.667 721.605 145.417 721.605 147.25C721.605 151.25 720.605 154.167 718.605 156C717.105 157 715.022 158.083 712.355 159.25C709.689 160.417 707.605 161 706.105 161C697.105 161 690.689 157.75 686.855 151.25Z" fill="#1BA213" fill-opacity="0.92" shape-rendering="crispEdges"/>
<path d="M367.281 21.25C369.781 24.25 371.531 26.6667 372.531 28.5C373.531 30.3333 374.031 32.0833 374.031 33.75C374.031 35.75 372.698 38.0833 370.031 40.75C367.531 43.4167 365.031 44.75 362.531 44.75C359.198 44.75 356.531 44.25 354.531 43.25C352.531 42.25 350.865 40.6667 349.531 38.5C346.865 34.5 343.615 31.0833 339.781 28.25C335.948 25.25 329.948 23.75 321.781 23.75C314.781 23.75 306.781 25.3333 297.781 28.5C288.948 31.6667 282.615 35.5833 278.781 40.25C275.448 44.4167 272.531 50.75 270.031 59.25C267.698 67.75 266.531 76 266.531 84C266.531 93.6667 268.615 102.583 272.781 110.75C277.115 118.75 283.281 125.167 291.281 130C299.448 134.833 309.198 137.25 320.531 137.25C326.698 137.25 333.031 136.083 339.531 133.75C346.198 131.25 351.948 127.25 356.781 121.75H356.531C359.531 118.583 363.281 117 367.781 117C370.448 117 372.948 118.167 375.281 120.5C377.781 122.833 379.031 125.167 379.031 127.5C379.031 130 378.615 132.25 377.781 134.25C377.115 136.083 375.781 138.167 373.781 140.5C366.948 148.167 358.865 153.417 349.531 156.25C340.198 159.083 329.031 160.5 316.031 160.5C304.531 160.5 292.865 157.75 281.031 152.25C269.365 146.75 260.365 140.083 254.031 132.25C250.698 127.417 247.448 120.5 244.281 111.5C241.281 102.333 239.781 94.9167 239.781 89.25C239.781 74.75 241.948 61 246.281 48C250.781 34.8333 257.448 24.3333 266.281 16.5C272.115 11.1667 280.531 7.16666 291.531 4.49999C302.531 1.83333 312.615 0.499997 321.781 0.499997C332.948 0.499997 341.698 2.08333 348.031 5.25C354.531 8.25 360.948 13.5833 367.281 21.25ZM500.176 79.75C501.509 82.0833 502.592 85.5 503.426 90C504.259 94.3333 504.676 98.25 504.676 101.75C504.676 108.25 503.259 117.5 500.426 129.5C488.926 150.5 471.926 161 449.426 161C441.092 161 432.592 158.25 423.926 152.75C415.259 147.25 409.259 140.917 405.926 133.75C401.426 119.417 399.176 110.333 399.176 106.5C399.176 99.8333 400.592 92.75 403.426 85.25C406.426 77.75 410.176 71.25 414.676 65.75C417.509 61.9167 422.592 58.6667 429.926 56C437.259 53.1667 443.926 51.75 449.926 51.75C461.592 51.75 471.509 54 479.676 58.5C487.842 62.8333 494.676 69.9167 500.176 79.75ZM478.426 120C479.259 117.833 479.676 112.25 479.676 103.25C479.676 98.4167 478.759 93.6667 476.926 89C475.259 84.3333 472.759 80.3333 469.426 77C469.092 76.6667 468.176 76.1667 466.676 75.5C465.176 74.6667 463.092 73.9167 460.426 73.25C457.926 72.4167 455.009 72 451.676 72C442.342 72 435.509 75.75 431.176 83.25C426.842 90.75 424.676 99.25 424.676 108.75C424.676 110.417 425.092 113.583 425.926 118.25C426.926 122.917 427.759 125.833 428.426 127C428.926 128.167 430.176 129.833 432.176 132C434.342 134 436.926 135.833 439.926 137.5C443.092 139 446.342 139.75 449.676 139.75C457.176 139.75 463.176 138 467.676 134.5C472.176 130.833 475.759 126 478.426 120ZM686.855 151.25C684.355 146.583 682.772 141.417 682.105 135.75C681.439 129.917 681.105 121.917 681.105 111.75C681.105 102.083 679.772 93.6667 677.105 86.5C674.439 79.3333 668.939 75.75 660.605 75.75C657.439 75.75 654.272 76.75 651.105 78.75C648.105 80.5833 645.855 82.9167 644.355 85.75C642.022 90.25 640.439 95.1667 639.605 100.5C638.772 105.667 638.355 111.667 638.355 118.5C638.355 122.833 638.605 127.25 639.105 131.75C639.105 133.083 639.189 135.25 639.355 138.25C639.689 141.083 639.855 143.667 639.855 146C639.855 156 636.355 161 629.355 161C620.189 161 615.355 156.167 614.855 146.5C614.855 139.667 614.939 136 615.105 135.5V124.75C615.105 118.75 614.855 112.917 614.355 107.25C613.855 101.583 613.272 97.3333 612.605 94.5C611.105 89 609.105 84.75 606.605 81.75C604.272 78.75 600.522 77.25 595.355 77.25C588.022 77.25 582.105 80.4167 577.605 86.75C574.439 91.75 572.355 97.8333 571.355 105C570.355 114.167 569.605 121.417 569.105 126.75C568.772 131.917 568.605 137.917 568.605 144.75C568.605 149.583 567.772 153.5 566.105 156.5C564.605 159.5 561.689 161 557.355 161C554.189 161 550.855 160.167 547.355 158.5C544.022 156.667 542.355 154.25 542.355 151.25C542.355 148.083 542.689 144.917 543.355 141.75C544.855 132.25 545.605 115.25 545.605 90.75C545.605 86.75 544.605 82.9167 542.605 79.25C540.772 75.4167 538.522 73.5 535.855 73.5C535.189 73.5 533.939 73.8333 532.105 74.5C530.439 75.1667 529.189 75.5 528.355 75.5C526.189 75.5 524.189 74.5 522.355 72.5C520.689 70.5 519.855 68.8333 519.855 67.5C519.855 63.3333 521.855 59.8333 525.855 57C530.022 54 534.355 52.5 538.855 52.5C545.022 52.5 550.272 54.4167 554.605 58.25C558.939 62.0833 562.272 67.4167 564.605 74.25C568.439 67.5833 573.605 62.25 580.105 58.25C586.605 54.0833 593.855 52 601.855 52C606.855 52 610.855 52.6667 613.855 54C617.022 55.1667 619.605 56.9167 621.605 59.25C623.605 61.4167 626.189 64.75 629.355 69.25C633.522 63.9167 638.855 59.75 645.355 56.75C652.022 53.75 658.855 52.25 665.855 52.25C674.189 52.25 681.689 55.6667 688.355 62.5C695.022 69.1667 699.522 76.9167 701.855 85.75C703.022 90.25 703.605 98.9167 703.605 111.75L704.605 126.25C705.439 134.917 708.272 140.167 713.105 142C718.772 143.667 721.605 145.417 721.605 147.25C721.605 151.25 720.605 154.167 718.605 156C717.105 157 715.022 158.083 712.355 159.25C709.689 160.417 707.605 161 706.105 161C697.105 161 690.689 157.75 686.855 151.25Z" fill="#208837" fill-opacity="0.2" shape-rendering="crispEdges"/>
</g>
<defs>
<filter id="filter0_d_9_13" x="0.25" y="0.5" width="725.355" height="168.5" filterUnits="userSpaceOnUse" color-interpolation-filters="sRGB">
<feFlood flood-opacity="0" result="BackgroundImageFix"/>
<feColorMatrix in="SourceAlpha" type="matrix" values="0 0 0 0 0 0 0 0 0 0 0 0 0 0 0 0 0 0 127 0" result="hardAlpha"/>
<feOffset dy="4"/>
<feGaussianBlur stdDeviation="2"/>
<feComposite in2="hardAlpha" operator="out"/>
<feColorMatrix type="matrix" values="0 0 0 0 0 0 0 0 0 0 0 0 0 0 0 0 0 0 0.25 0"/>
<feBlend mode="normal" in2="BackgroundImageFix" result="effect1_dropShadow_9_13"/>
<feBlend mode="normal" in="SourceGraphic" in2="effect1_dropShadow_9_13" result="shape"/>
</filter>
</defs>
</svg>
