<?xml version="1.0" standalone="no"?>
<!DOCTYPE svg PUBLIC "-//W3C//DTD SVG 20010904//EN"
 "http://www.w3.org/TR/2001/REC-SVG-20010904/DTD/svg10.dtd">
<svg version="1.0" xmlns="http://www.w3.org/2000/svg"
 width="500.000000pt" height="500.000000pt" viewBox="0 0 500.000000 500.000000"
 preserveAspectRatio="xMidYMid meet">

<g transform="translate(0.000000,500.000000) scale(0.100000,-0.100000)"
fill="#000000" stroke="none">
<path d="M1340 2971 c0 -5 -70 -134 -155 -287 -85 -153 -155 -282 -155 -287 0
-5 6 -6 13 -3 6 2 55 19 108 36 l97 32 97 175 c54 96 101 171 105 166 4 -4 12
-60 19 -123 7 -63 15 -127 17 -142 l6 -28 94 0 c63 0 94 4 94 11 0 6 -7 59
-15 118 -16 116 -30 219 -40 294 l-6 47 -140 0 c-76 0 -139 -4 -139 -9z"/>
<path d="M3172 2764 c-82 -20 -175 -84 -224 -154 -59 -83 -81 -151 -82 -250 0
-73 3 -92 26 -135 30 -57 86 -107 126 -113 15 -2 28 -7 30 -12 2 -5 17 -7 33
-3 18 3 35 0 46 -8 9 -8 14 -9 10 -3 -5 8 5 11 34 10 22 -1 42 1 45 6 3 4 15
8 26 8 29 0 118 41 112 52 -3 4 1 8 9 8 8 0 25 8 38 19 l23 19 -28 41 c-16 22
-31 41 -33 41 -2 0 -19 -11 -37 -25 -75 -57 -188 -70 -245 -28 -24 18 -61 96
-51 107 3 2 48 9 100 15 93 10 276 53 313 72 26 15 37 51 37 125 0 75 -22 127
-70 167 -54 46 -149 62 -238 41z m120 -151 c36 -32 21 -86 -31 -112 -36 -19
-209 -56 -218 -48 -9 10 39 106 67 132 55 53 140 66 182 28z"/>
<path d="M2187 2756 c-39 -14 -54 -24 -101 -65 l-29 -26 6 48 7 47 -78 0 -78
0 -53 -267 c-28 -148 -56 -287 -62 -310 -19 -85 -19 -84 72 -81 l81 3 33 160
c52 252 59 276 99 313 29 26 44 32 79 32 30 0 49 -6 60 -18 19 -21 22 -81 7
-144 -6 -24 -22 -101 -36 -173 -14 -71 -28 -140 -31 -152 -5 -23 -3 -23 81
-23 l85 0 9 38 c5 20 19 84 31 142 49 240 57 265 98 301 26 22 43 29 77 29 53
0 76 -22 76 -74 0 -29 -54 -322 -77 -414 -5 -23 -5 -23 83 -20 l89 3 6 40 c7
40 12 66 48 230 10 50 26 123 35 162 34 158 -28 241 -173 231 -72 -5 -93 -14
-162 -70 l-46 -37 -17 39 c-11 25 -28 44 -50 54 -41 19 -117 20 -169 2z"/>
<path d="M3930 2763 c-30 -6 -72 -34 -123 -82 l-39 -36 7 58 7 58 -77 -3 -78
-3 -63 -315 c-35 -173 -64 -321 -64 -327 0 -10 23 -13 84 -13 l84 0 6 38 c23
126 70 320 86 351 42 82 130 130 202 110 22 -6 42 -9 43 -7 2 2 19 40 38 85
34 80 34 81 13 87 -24 6 -88 6 -126 -1z"/>
</g>
</svg>
