<svg width="586" height="170" viewBox="0 0 586 170" fill="none" xmlns="http://www.w3.org/2000/svg">
<g filter="url(#filter0_d_1_78)">
<path d="M132 156.25C129.833 153.417 128 150.333 126.5 147C125 143.5 123.417 139.333 121.75 134.5C121.417 133.667 120.417 131.167 118.75 127C117.25 122.833 115.5 119.25 113.5 116.25C103 117.75 94.4167 118.5 87.75 118.5C84.0833 118.5 80 118.417 75.5 118.25C71.1667 117.917 67.9167 117.75 65.75 117.75C57.4167 117.083 50.75 116.75 45.75 116.75C43.75 119.417 42 122.25 40.5 125.25C39.1667 128.25 37.4167 132.75 35.25 138.75C32.25 147.417 29.6667 153.583 27.5 157.25C26 159.75 23.0833 161 18.75 161C15.0833 161 11.6667 160.25 8.5 158.75C5.5 157.083 4 154.833 4 152C5.33333 145.667 7.41667 139 10.25 132C13.25 124.833 17.5 115.333 23 103.5L33 79C38.5 65 43.5 53 48 43C52.6667 33 58.75 21.1667 66.25 7.5C67.25 5.49999 68.9167 3.83332 71.25 2.49999C73.5833 0.999986 76.1667 0.249985 79 0.249985C82.1667 0.249985 84.4167 0.499987 85.75 0.999991C87.25 1.33333 88.4167 2 89.25 2.99999C90.0833 3.83333 91.3333 5.66666 93 8.5C98.6667 17.3333 103.5 26.4167 107.5 35.75C111.667 45.0833 116.917 58 123.25 74.5L128.5 87.75C133.167 99.75 137.167 109.833 140.5 118C144 126 147.833 133.333 152 140C154.667 144.333 156 147.333 156 149C156 153 154.75 156.083 152.25 158.25C149.917 160.25 146.833 161.25 143 161.25C138.167 161.25 134.5 159.583 132 156.25ZM106.25 95.75C103.583 90.0833 99.75 80.25 94.75 66.25C89.5833 51.25 84.4167 39.3333 79.25 30.5C76.0833 38.5 71.4167 48.8333 65.25 61.5C61.0833 69.3333 56.3333 80.6667 51 95.5C61.6667 96.8333 73.1667 97.5 85.5 97.5C94.3333 97.5 101.25 96.9167 106.25 95.75ZM330.912 151.25C328.412 146.583 326.829 141.417 326.162 135.75C325.495 129.917 325.162 121.917 325.162 111.75C325.162 102.083 323.829 93.6667 321.162 86.5C318.495 79.3333 312.995 75.75 304.662 75.75C301.495 75.75 298.329 76.75 295.162 78.75C292.162 80.5833 289.912 82.9167 288.412 85.75C286.079 90.25 284.495 95.1667 283.662 100.5C282.829 105.667 282.412 111.667 282.412 118.5C282.412 122.833 282.662 127.25 283.162 131.75C283.162 133.083 283.245 135.25 283.412 138.25C283.745 141.083 283.912 143.667 283.912 146C283.912 156 280.412 161 273.412 161C264.245 161 259.412 156.167 258.912 146.5C258.912 139.667 258.995 136 259.162 135.5V124.75C259.162 118.75 258.912 112.917 258.412 107.25C257.912 101.583 257.329 97.3333 256.662 94.5C255.162 89 253.162 84.75 250.662 81.75C248.329 78.75 244.579 77.25 239.412 77.25C232.079 77.25 226.162 80.4167 221.662 86.75C218.495 91.75 216.412 97.8333 215.412 105C214.412 114.167 213.662 121.417 213.162 126.75C212.829 131.917 212.662 137.917 212.662 144.75C212.662 149.583 211.829 153.5 210.162 156.5C208.662 159.5 205.745 161 201.412 161C198.245 161 194.912 160.167 191.412 158.5C188.079 156.667 186.412 154.25 186.412 151.25C186.412 148.083 186.745 144.917 187.412 141.75C188.912 132.25 189.662 115.25 189.662 90.75C189.662 86.75 188.662 82.9167 186.662 79.25C184.829 75.4167 182.579 73.5 179.912 73.5C179.245 73.5 177.995 73.8333 176.162 74.5C174.495 75.1667 173.245 75.5 172.412 75.5C170.245 75.5 168.245 74.5 166.412 72.5C164.745 70.5 163.912 68.8333 163.912 67.5C163.912 63.3333 165.912 59.8333 169.912 57C174.079 54 178.412 52.5 182.912 52.5C189.079 52.5 194.329 54.4167 198.662 58.25C202.995 62.0833 206.329 67.4167 208.662 74.25C212.495 67.5833 217.662 62.25 224.162 58.25C230.662 54.0833 237.912 52 245.912 52C250.912 52 254.912 52.6667 257.912 54C261.079 55.1667 263.662 56.9167 265.662 59.25C267.662 61.4167 270.245 64.75 273.412 69.25C277.579 63.9167 282.912 59.75 289.412 56.75C296.079 53.75 302.912 52.25 309.912 52.25C318.245 52.25 325.745 55.6667 332.412 62.5C339.079 69.1667 343.579 76.9167 345.912 85.75C347.079 90.25 347.662 98.9167 347.662 111.75L348.662 126.25C349.495 134.917 352.329 140.167 357.162 142C362.829 143.667 365.662 145.417 365.662 147.25C365.662 151.25 364.662 154.167 362.662 156C361.162 157 359.079 158.083 356.412 159.25C353.745 160.417 351.662 161 350.162 161C341.162 161 334.745 157.75 330.912 151.25ZM381.367 107C381.367 100.667 382.534 94.3333 384.867 88C387.201 81.5 390.284 75.5833 394.117 70.25C397.951 64.9167 404.034 60.5833 412.367 57.25C420.701 53.75 428.117 52 434.617 52C441.284 52 448.034 52.9167 454.867 54.75C461.867 56.5833 466.701 59.4167 469.367 63.25C475.534 71.9167 478.617 80.4167 478.617 88.75C478.617 93.25 477.617 97.0833 475.617 100.25C473.784 103.417 471.117 106.833 467.617 110.5C464.784 113.5 460.284 115.5 454.117 116.5C448.117 117.5 442.117 118 436.117 118C432.284 118 427.617 117.667 422.117 117C416.617 116.167 411.284 115.167 406.117 114C406.451 117.333 407.284 120.583 408.617 123.75C409.951 126.917 411.534 129.333 413.367 131C416.701 134.167 420.117 136.167 423.617 137C427.284 137.833 431.951 138.25 437.617 138.25C443.617 138.25 449.201 137.25 454.367 135.25C458.534 133.75 461.951 133 464.617 133C467.784 133 470.201 134 471.867 136C473.534 137.833 474.367 140.25 474.367 143.25C474.367 147.417 471.951 150.833 467.117 153.5C462.284 156.167 456.701 158.167 450.367 159.5C444.201 160.667 439.201 161.25 435.367 161.25C427.534 161.25 419.951 159.833 412.617 157C405.284 154.167 399.201 150.167 394.367 145C390.367 140.333 387.201 134.75 384.867 128.25C382.534 121.583 381.367 114.5 381.367 107ZM435.867 73.25C432.201 73.25 428.534 74 424.867 75.5C421.201 76.8333 418.201 78.75 415.867 81.25C412.867 84.4167 410.784 87 409.617 89C408.617 90.8333 407.951 93.4167 407.617 96.75C411.784 98.0833 420.451 98.75 433.617 98.75C440.784 98.75 446.284 97.6667 450.117 95.5C454.117 93.3333 456.117 90.5 456.117 87C456.117 83.5 453.951 80.3333 449.617 77.5C445.284 74.6667 440.701 73.25 435.867 73.25ZM503.508 72.25C499.174 69.25 497.008 66.0833 497.008 62.75C497.008 60.4167 498.008 58.25 500.008 56.25C502.008 54.25 505.008 53.25 509.008 53.25C513.674 53.25 517.841 54.5 521.508 57C525.341 59.3333 528.008 62.75 529.508 67.25C533.341 62.75 537.674 59.1667 542.508 56.5C547.508 53.8333 552.591 52.5 557.758 52.5C563.924 52.5 569.508 54.1667 574.508 57.5C579.508 60.8333 582.008 65.3333 582.008 71C582.008 74.1667 580.591 77.4167 577.758 80.75C575.091 84.0833 572.341 85.75 569.508 85.75C568.008 85.75 566.674 85.4167 565.508 84.75C564.508 83.9167 563.258 82.75 561.758 81.25C560.091 79.5833 558.674 78.4167 557.508 77.75C556.341 76.9167 555.008 76.5 553.508 76.5C550.841 76.5 548.341 76.9167 546.008 77.75C543.674 78.5833 542.091 79.5833 541.258 80.75C538.591 84.9167 536.591 88.6667 535.258 92C534.091 95.3333 533.508 98.9167 533.508 102.75C533.508 105.583 533.424 107.833 533.258 109.5L533.008 123.75C533.008 125.917 533.091 128.333 533.258 131C533.424 133.667 533.591 135.667 533.758 137C534.258 141.5 534.508 145.833 534.508 150C534.508 152.833 533.424 155.333 531.258 157.5C529.091 159.667 526.424 160.75 523.258 160.75C518.258 160.75 514.591 159.833 512.258 158C509.924 156 508.758 152.417 508.758 147.25L508.508 131.25C508.341 128.083 508.258 123.583 508.258 117.75L508.508 101.25C508.841 93.25 509.008 86.75 509.008 81.75C509.008 79.9167 508.591 78.25 507.758 76.75C507.091 75.25 505.674 73.75 503.508 72.25Z" fill="#1BA213"/>
</g>
<defs>
<filter id="filter0_d_1_78" x="0" y="0.25" width="586.008" height="169" filterUnits="userSpaceOnUse" color-interpolation-filters="sRGB">
<feFlood flood-opacity="0" result="BackgroundImageFix"/>
<feColorMatrix in="SourceAlpha" type="matrix" values="0 0 0 0 0 0 0 0 0 0 0 0 0 0 0 0 0 0 127 0" result="hardAlpha"/>
<feOffset dy="4"/>
<feGaussianBlur stdDeviation="2"/>
<feComposite in2="hardAlpha" operator="out"/>
<feColorMatrix type="matrix" values="0 0 0 0 0 0 0 0 0 0 0 0 0 0 0 0 0 0 0.25 0"/>
<feBlend mode="normal" in2="BackgroundImageFix" result="effect1_dropShadow_1_78"/>
<feBlend mode="normal" in="SourceGraphic" in2="effect1_dropShadow_1_78" result="shape"/>
</filter>
</defs>
</svg>
