<svg width="560" height="165" viewBox="0 0 560 165" fill="none" xmlns="http://www.w3.org/2000/svg">
<g filter="url(#filter0_d_1_78)">
<path d="M75.75 55C89.4167 58 100.75 63.9167 109.75 72.75C118.75 81.5833 123.25 91.8333 123.25 103.5C123.25 110.5 121.583 117.333 118.25 124C112.917 134.667 104.917 142.667 94.25 148C83.75 153.333 71.5833 156 57.75 156C49.0833 156 41.3333 154.417 34.5 151.25C27.6667 147.917 20.9167 143.5 14.25 138C11.75 135.667 9.5 132.333 7.5 128C5.66667 123.667 4.75 120.083 4.75 117.25C4.75 113.583 5.75 110.667 7.75 108.5C9.91667 106.167 12.75 105 16.25 105C19.75 105 22.5 105.833 24.5 107.5C26.5 109.167 28.9167 111.833 31.75 115.5C34.4167 119 36.8333 121.833 39 124C41.1667 126 44.0833 127.75 47.75 129.25C51.4167 130.75 56 131.5 61.5 131.5C72.6667 131.5 81.4167 128.75 87.75 123.25C94.0833 117.75 97.25 110 97.25 100C97.25 96.1667 95.1667 92.3333 91 88.5C86.8333 84.5 82.9167 81.6667 79.25 80C77.0833 78.8333 73.0833 77.6667 67.25 76.5C59.4167 74.5 53.5 72.5833 49.5 70.75C45.6667 68.75 43.75 65.6667 43.75 61.5C43.75 58.6667 45 55.9167 47.5 53.25C50 50.4167 53.75 46.9167 58.75 42.75C63.75 38.5833 67.5 35.1667 70 32.5C72.5 29.6667 73.75 26.8333 73.75 24C70.5833 23.1667 65.8333 22.75 59.5 22.75C56.6667 22.75 52.4167 22.9167 46.75 23.25C41.75 23.5833 37.9167 23.75 35.25 23.75C29.25 23.75 24.0833 22.75 19.75 20.75C15.5833 18.75 13.5 16.1667 13.5 13C13.5 9.49999 13.8333 6.74999 14.5 4.75C15.1667 2.58333 16.4167 1.24999 18.25 0.749989C19.4167 0.249996 21.5 -1.19209e-06 24.5 -1.19209e-06C32.6667 -1.19209e-06 39.75 0.249996 45.75 0.749989C52.4167 1.08333 57.5 1.25 61 1.25L81.75 0.999986C98.75 0.999986 107.25 5.08332 107.25 13.25C107.25 19.4167 104.083 26.4167 97.75 34.25C91.5833 41.9167 84.25 48.8333 75.75 55ZM304.23 146.25C301.73 141.583 300.147 136.417 299.48 130.75C298.814 124.917 298.48 116.917 298.48 106.75C298.48 97.0833 297.147 88.6667 294.48 81.5C291.814 74.3333 286.314 70.75 277.98 70.75C274.814 70.75 271.647 71.75 268.48 73.75C265.48 75.5833 263.23 77.9167 261.73 80.75C259.397 85.25 257.814 90.1667 256.98 95.5C256.147 100.667 255.73 106.667 255.73 113.5C255.73 117.833 255.98 122.25 256.48 126.75C256.48 128.083 256.564 130.25 256.73 133.25C257.064 136.083 257.23 138.667 257.23 141C257.23 151 253.73 156 246.73 156C237.564 156 232.73 151.167 232.23 141.5C232.23 134.667 232.314 131 232.48 130.5V119.75C232.48 113.75 232.23 107.917 231.73 102.25C231.23 96.5833 230.647 92.3333 229.98 89.5C228.48 84 226.48 79.75 223.98 76.75C221.647 73.75 217.897 72.25 212.73 72.25C205.397 72.25 199.48 75.4167 194.98 81.75C191.814 86.75 189.73 92.8333 188.73 100C187.73 109.167 186.98 116.417 186.48 121.75C186.147 126.917 185.98 132.917 185.98 139.75C185.98 144.583 185.147 148.5 183.48 151.5C181.98 154.5 179.064 156 174.73 156C171.564 156 168.23 155.167 164.73 153.5C161.397 151.667 159.73 149.25 159.73 146.25C159.73 143.083 160.064 139.917 160.73 136.75C162.23 127.25 162.98 110.25 162.98 85.75C162.98 81.75 161.98 77.9167 159.98 74.25C158.147 70.4167 155.897 68.5 153.23 68.5C152.564 68.5 151.314 68.8333 149.48 69.5C147.814 70.1667 146.564 70.5 145.73 70.5C143.564 70.5 141.564 69.5 139.73 67.5C138.064 65.5 137.23 63.8333 137.23 62.5C137.23 58.3333 139.23 54.8333 143.23 52C147.397 49 151.73 47.5 156.23 47.5C162.397 47.5 167.647 49.4167 171.98 53.25C176.314 57.0833 179.647 62.4167 181.98 69.25C185.814 62.5833 190.98 57.25 197.48 53.25C203.98 49.0833 211.23 47 219.23 47C224.23 47 228.23 47.6667 231.23 49C234.397 50.1667 236.98 51.9167 238.98 54.25C240.98 56.4167 243.564 59.75 246.73 64.25C250.897 58.9167 256.23 54.75 262.73 51.75C269.397 48.75 276.23 47.25 283.23 47.25C291.564 47.25 299.064 50.6667 305.73 57.5C312.397 64.1667 316.897 71.9167 319.23 80.75C320.397 85.25 320.98 93.9167 320.98 106.75L321.98 121.25C322.814 129.917 325.647 135.167 330.48 137C336.147 138.667 338.98 140.417 338.98 142.25C338.98 146.25 337.98 149.167 335.98 151C334.48 152 332.397 153.083 329.73 154.25C327.064 155.417 324.98 156 323.48 156C314.48 156 308.064 152.75 304.23 146.25ZM354.686 102C354.686 95.6667 355.852 89.3333 358.186 83C360.519 76.5 363.602 70.5833 367.436 65.25C371.269 59.9167 377.352 55.5833 385.686 52.25C394.019 48.75 401.436 47 407.936 47C414.602 47 421.352 47.9167 428.186 49.75C435.186 51.5833 440.019 54.4167 442.686 58.25C448.852 66.9167 451.936 75.4167 451.936 83.75C451.936 88.25 450.936 92.0833 448.936 95.25C447.102 98.4167 444.436 101.833 440.936 105.5C438.102 108.5 433.602 110.5 427.436 111.5C421.436 112.5 415.436 113 409.436 113C405.602 113 400.936 112.667 395.436 112C389.936 111.167 384.602 110.167 379.436 109C379.769 112.333 380.602 115.583 381.936 118.75C383.269 121.917 384.852 124.333 386.686 126C390.019 129.167 393.436 131.167 396.936 132C400.602 132.833 405.269 133.25 410.936 133.25C416.936 133.25 422.519 132.25 427.686 130.25C431.852 128.75 435.269 128 437.936 128C441.102 128 443.519 129 445.186 131C446.852 132.833 447.686 135.25 447.686 138.25C447.686 142.417 445.269 145.833 440.436 148.5C435.602 151.167 430.019 153.167 423.686 154.5C417.519 155.667 412.519 156.25 408.686 156.25C400.852 156.25 393.269 154.833 385.936 152C378.602 149.167 372.519 145.167 367.686 140C363.686 135.333 360.519 129.75 358.186 123.25C355.852 116.583 354.686 109.5 354.686 102ZM409.186 68.25C405.519 68.25 401.852 69 398.186 70.5C394.519 71.8333 391.519 73.75 389.186 76.25C386.186 79.4167 384.102 82 382.936 84C381.936 85.8333 381.269 88.4167 380.936 91.75C385.102 93.0833 393.769 93.75 406.936 93.75C414.102 93.75 419.602 92.6667 423.436 90.5C427.436 88.3333 429.436 85.5 429.436 82C429.436 78.5 427.269 75.3333 422.936 72.5C418.602 69.6667 414.019 68.25 409.186 68.25ZM476.826 67.25C472.493 64.25 470.326 61.0833 470.326 57.75C470.326 55.4167 471.326 53.25 473.326 51.25C475.326 49.25 478.326 48.25 482.326 48.25C486.993 48.25 491.16 49.5 494.826 52C498.66 54.3333 501.326 57.75 502.826 62.25C506.66 57.75 510.993 54.1667 515.826 51.5C520.826 48.8333 525.91 47.5 531.076 47.5C537.243 47.5 542.826 49.1667 547.826 52.5C552.826 55.8333 555.326 60.3333 555.326 66C555.326 69.1667 553.91 72.4167 551.076 75.75C548.41 79.0833 545.66 80.75 542.826 80.75C541.326 80.75 539.993 80.4167 538.826 79.75C537.826 78.9167 536.576 77.75 535.076 76.25C533.41 74.5833 531.993 73.4167 530.826 72.75C529.66 71.9167 528.326 71.5 526.826 71.5C524.16 71.5 521.66 71.9167 519.326 72.75C516.993 73.5833 515.41 74.5833 514.576 75.75C511.91 79.9167 509.91 83.6667 508.576 87C507.41 90.3333 506.826 93.9167 506.826 97.75C506.826 100.583 506.743 102.833 506.576 104.5L506.326 118.75C506.326 120.917 506.41 123.333 506.576 126C506.743 128.667 506.91 130.667 507.076 132C507.576 136.5 507.826 140.833 507.826 145C507.826 147.833 506.743 150.333 504.576 152.5C502.41 154.667 499.743 155.75 496.576 155.75C491.576 155.75 487.91 154.833 485.576 153C483.243 151 482.076 147.417 482.076 142.25L481.826 126.25C481.66 123.083 481.576 118.583 481.576 112.75L481.826 96.25C482.16 88.25 482.326 81.75 482.326 76.75C482.326 74.9167 481.91 73.25 481.076 71.75C480.41 70.25 478.993 68.75 476.826 67.25Z" fill="#1BA213"/>
</g>
<defs>
<filter id="filter0_d_1_78" x="0.75" y="0" width="558.576" height="164.25" filterUnits="userSpaceOnUse" color-interpolation-filters="sRGB">
<feFlood flood-opacity="0" result="BackgroundImageFix"/>
<feColorMatrix in="SourceAlpha" type="matrix" values="0 0 0 0 0 0 0 0 0 0 0 0 0 0 0 0 0 0 127 0" result="hardAlpha"/>
<feOffset dy="4"/>
<feGaussianBlur stdDeviation="2"/>
<feComposite in2="hardAlpha" operator="out"/>
<feColorMatrix type="matrix" values="0 0 0 0 0 0 0 0 0 0 0 0 0 0 0 0 0 0 0.25 0"/>
<feBlend mode="normal" in2="BackgroundImageFix" result="effect1_dropShadow_1_78"/>
<feBlend mode="normal" in="SourceGraphic" in2="effect1_dropShadow_1_78" result="shape"/>
</filter>
</defs>
</svg>
